<svg width="507" height="84" viewBox="0 0 507 84" fill="none" xmlns="http://www.w3.org/2000/svg">
<path d="M70.88 62C68.1067 62 65.5467 61.3173 63.2 59.952C60.896 58.5867 59.0613 56.7307 57.696 54.384C56.3307 52.0373 55.648 49.4773 55.648 46.704V39.792C55.648 37.0187 56.3307 34.4587 57.696 32.112C59.0613 29.7653 60.896 27.9093 63.2 26.544C65.5467 25.1787 68.1067 24.496 70.88 24.496C73.6533 24.496 76.192 25.1787 78.496 26.544C80.8427 27.9093 82.6987 29.7653 84.064 32.112C85.4293 34.4587 86.112 37.0187 86.112 39.792V44.08C86.112 44.848 85.8347 45.5093 85.28 46.064C84.768 46.576 84.128 46.832 83.36 46.832H63.328V47.152C63.328 49.2427 64.0533 51.0347 65.504 52.528C66.9973 53.9787 68.7893 54.704 70.88 54.704H81.056C81.44 54.704 81.76 54.832 82.016 55.088C82.272 55.344 82.4 55.664 82.4 56.048V60.656C82.4 61.04 82.272 61.36 82.016 61.616C81.76 61.872 81.44 62 81.056 62H70.88ZM78.432 39.92V39.344C78.432 37.2533 77.6853 35.4827 76.192 34.032C74.7413 32.5387 72.9707 31.792 70.88 31.792C68.7893 31.792 66.9973 32.5387 65.504 34.032C64.0533 35.4827 63.328 37.2533 63.328 39.344V39.92H78.432ZM89.4035 62C88.9768 62 88.6142 61.872 88.3155 61.616C88.0168 61.3173 87.8675 60.976 87.8675 60.592C87.8675 60.336 87.9742 60.0373 88.1875 59.696L99.4515 42.608L89.6595 27.632C89.4462 27.2907 89.3395 26.992 89.3395 26.736C89.3395 26.352 89.4888 26.032 89.7875 25.776C90.0862 25.4773 90.4488 25.328 90.8755 25.328H96.0595C96.6568 25.328 97.1902 25.6267 97.6595 26.224L103.995 35.952L110.267 26.224C110.694 25.6267 111.227 25.328 111.868 25.328H117.052C117.478 25.328 117.841 25.4773 118.139 25.776C118.438 26.032 118.588 26.352 118.588 26.736C118.588 26.992 118.481 27.2907 118.268 27.632L108.476 42.608L119.74 59.696C119.953 60.0373 120.06 60.336 120.06 60.592C120.06 60.976 119.91 61.3173 119.611 61.616C119.313 61.872 118.95 62 118.523 62H113.212C112.571 62 112.038 61.7013 111.611 61.104L103.995 49.264L96.3155 61.104C95.8888 61.7013 95.3555 62 94.7155 62H89.4035ZM126.153 74.352C125.769 74.352 125.449 74.224 125.193 73.968C124.937 73.712 124.809 73.392 124.809 73.008V26.672C124.809 26.288 124.937 25.968 125.193 25.712C125.449 25.456 125.769 25.328 126.153 25.328H130.313C130.697 25.328 131.017 25.456 131.273 25.712C131.529 25.968 131.657 26.288 131.657 26.672V29.552C132.767 27.888 134.132 26.6293 135.753 25.776C137.417 24.9227 139.188 24.496 141.065 24.496C143.583 24.496 145.929 25.1787 148.105 26.544C150.324 27.8667 152.073 29.6587 153.354 31.92C154.676 34.1813 155.337 36.6133 155.337 39.216V48.112C155.337 50.7147 154.697 53.1467 153.417 55.408C152.137 57.6693 150.409 59.4827 148.233 60.848C146.057 62.1707 143.668 62.832 141.065 62.832C139.487 62.832 137.951 62.512 136.457 61.872C135.007 61.1893 133.684 60.2293 132.489 58.992V73.008C132.489 73.392 132.361 73.712 132.105 73.968C131.849 74.224 131.529 74.352 131.145 74.352H126.153ZM140.105 55.472C142.196 55.472 143.967 54.7467 145.417 53.296C146.911 51.8027 147.657 50.0107 147.657 47.92V39.408C147.657 37.3173 146.911 35.5467 145.417 34.096C143.967 32.6027 142.196 31.856 140.105 31.856C138.015 31.856 136.223 32.6027 134.729 34.096C133.236 35.5467 132.489 37.3173 132.489 39.408V47.92C132.489 50.0107 133.236 51.8027 134.729 53.296C136.223 54.7467 138.015 55.472 140.105 55.472ZM175.763 62C172.989 62 170.429 61.3173 168.083 59.952C165.779 58.5867 163.944 56.7307 162.578 54.384C161.213 52.0373 160.53 49.4773 160.53 46.704V39.792C160.53 37.0187 161.213 34.4587 162.578 32.112C163.944 29.7653 165.779 27.9093 168.083 26.544C170.429 25.1787 172.989 24.496 175.763 24.496C178.536 24.496 181.075 25.1787 183.379 26.544C185.725 27.9093 187.581 29.7653 188.947 32.112C190.312 34.4587 190.995 37.0187 190.995 39.792V44.08C190.995 44.848 190.717 45.5093 190.163 46.064C189.651 46.576 189.011 46.832 188.243 46.832H168.21V47.152C168.21 49.2427 168.936 51.0347 170.387 52.528C171.88 53.9787 173.672 54.704 175.763 54.704H185.939C186.323 54.704 186.643 54.832 186.899 55.088C187.155 55.344 187.283 55.664 187.283 56.048V60.656C187.283 61.04 187.155 61.36 186.899 61.616C186.643 61.872 186.323 62 185.939 62H175.763ZM183.315 39.92V39.344C183.315 37.2533 182.568 35.4827 181.075 34.032C179.624 32.5387 177.853 31.792 175.763 31.792C173.672 31.792 171.88 32.5387 170.387 34.032C168.936 35.4827 168.21 37.2533 168.21 39.344V39.92H183.315ZM198.096 62C197.712 62 197.392 61.872 197.136 61.616C196.88 61.36 196.752 61.04 196.752 60.656V26.672C196.752 26.288 196.88 25.968 197.136 25.712C197.392 25.456 197.712 25.328 198.096 25.328H203.088C203.472 25.328 203.792 25.456 204.048 25.712C204.304 25.968 204.432 26.288 204.432 26.672V29.68C205.627 28.0587 207.035 26.8 208.656 25.904C210.32 24.9653 212.133 24.496 214.096 24.496C216.528 24.496 218.704 25.072 220.624 26.224C222.587 27.376 224.123 28.976 225.232 31.024C226.341 33.072 226.896 35.376 226.896 37.936V60.656C226.896 61.04 226.768 61.36 226.512 61.616C226.256 61.872 225.936 62 225.552 62H220.56C220.176 62 219.856 61.872 219.6 61.616C219.344 61.36 219.216 61.04 219.216 60.656V38.896C219.216 36.6347 218.64 34.9067 217.488 33.712C216.336 32.4747 214.715 31.856 212.624 31.856C210.107 31.856 208.101 32.688 206.608 34.352C205.157 35.9733 204.432 38.2133 204.432 41.072V60.656C204.432 61.04 204.304 61.36 204.048 61.616C203.792 61.872 203.472 62 203.088 62H198.096ZM244.572 62.832C242.268 62.832 240.049 62.4693 237.916 61.744C235.783 61.0187 233.884 60.016 232.22 58.736C232.007 58.5653 231.857 58.352 231.772 58.096C231.729 57.7973 231.751 57.52 231.836 57.264C232.135 56.5813 232.86 55.2373 234.012 53.232C234.353 52.72 234.78 52.464 235.292 52.464C235.591 52.464 235.889 52.5493 236.188 52.72C237.724 53.7867 239.153 54.576 240.476 55.088C241.841 55.5573 243.271 55.792 244.764 55.792C246.556 55.792 247.921 55.472 248.86 54.832C249.799 54.1493 250.268 53.232 250.268 52.08C250.268 51.0987 249.863 50.3307 249.052 49.776C248.241 49.2213 246.705 48.5173 244.444 47.664L242.14 46.768C240.263 46.0427 238.663 45.2747 237.34 44.464C236.017 43.6107 234.887 42.4587 233.948 41.008C233.052 39.5573 232.604 37.744 232.604 35.568C232.604 32.1973 233.713 29.5307 235.932 27.568C238.193 25.5627 241.18 24.56 244.892 24.56C247.068 24.56 249.201 24.9227 251.292 25.648C253.383 26.3307 255.217 27.2907 256.796 28.528C257.009 28.6987 257.137 28.9333 257.18 29.232C257.265 29.488 257.265 29.744 257.18 30C256.796 30.896 256.156 32.24 255.26 34.032C255.004 34.5013 254.599 34.736 254.044 34.736C253.745 34.736 253.447 34.6507 253.148 34.48C250.204 32.56 247.473 31.6 244.956 31.6C243.505 31.6 242.353 31.92 241.5 32.56C240.689 33.1573 240.284 34.0107 240.284 35.12C240.284 36.2293 240.753 37.168 241.692 37.936C242.631 38.6613 244.359 39.5147 246.876 40.496C249.308 41.4347 251.185 42.2453 252.508 42.928C253.873 43.568 255.111 44.6133 256.22 46.064C257.372 47.472 257.948 49.3067 257.948 51.568C257.948 53.7867 257.372 55.7493 256.22 57.456C255.111 59.1627 253.532 60.4853 251.484 61.424C249.479 62.3627 247.175 62.832 244.572 62.832ZM277.333 62C274.559 62 271.999 61.3173 269.653 59.952C267.348 58.5867 265.514 56.7307 264.148 54.384C262.783 52.0373 262.1 49.4773 262.1 46.704V39.792C262.1 37.0187 262.783 34.4587 264.148 32.112C265.514 29.7653 267.348 27.9093 269.653 26.544C271.999 25.1787 274.559 24.496 277.333 24.496C280.106 24.496 282.645 25.1787 284.949 26.544C287.295 27.9093 289.151 29.7653 290.517 32.112C291.882 34.4587 292.565 37.0187 292.565 39.792V44.08C292.565 44.848 292.287 45.5093 291.733 46.064C291.221 46.576 290.581 46.832 289.812 46.832H269.78V47.152C269.78 49.2427 270.506 51.0347 271.957 52.528C273.45 53.9787 275.242 54.704 277.333 54.704H287.509C287.893 54.704 288.213 54.832 288.469 55.088C288.725 55.344 288.853 55.664 288.853 56.048V60.656C288.853 61.04 288.725 61.36 288.469 61.616C288.213 61.872 287.893 62 287.509 62H277.333ZM284.885 39.92V39.344C284.885 37.2533 284.138 35.4827 282.645 34.032C281.194 32.5387 279.423 31.792 277.333 31.792C275.242 31.792 273.45 32.5387 271.957 34.032C270.506 35.4827 269.78 37.2533 269.78 39.344V39.92H284.885Z" fill="#1F845A"/>
<path d="M315.346 62C312.274 62 309.863 61.0827 308.114 59.248C306.365 57.3707 305.49 55.024 305.49 52.208V30.448H301.266C301.01 30.448 300.797 30.3627 300.626 30.192C300.455 30.0213 300.37 29.808 300.37 29.552V26.672C300.37 26.416 300.455 26.2027 300.626 26.032C300.797 25.8613 301.01 25.776 301.266 25.776H305.49V19.056C305.49 18.8 305.575 18.5867 305.746 18.416C305.917 18.2453 306.13 18.16 306.386 18.16H309.586C309.842 18.16 310.055 18.2453 310.226 18.416C310.397 18.5867 310.482 18.8 310.482 19.056V25.776H321.746C322.002 25.776 322.215 25.8613 322.386 26.032C322.557 26.2027 322.642 26.416 322.642 26.672V29.616C322.642 29.872 322.557 30.0853 322.386 30.256C322.215 30.4267 322.002 30.512 321.746 30.512H310.482V51.632C310.482 53.296 310.973 54.64 311.954 55.664C312.978 56.6453 314.301 57.1573 315.922 57.2L321.746 57.264C322.002 57.264 322.215 57.3493 322.386 57.52C322.557 57.6907 322.642 57.904 322.642 58.16V61.104C322.642 61.36 322.557 61.5733 322.386 61.744C322.215 61.9147 322.002 62 321.746 62H315.346ZM327.721 62C327.465 62 327.252 61.9147 327.081 61.744C326.91 61.5733 326.825 61.36 326.825 61.104V58.16C326.825 57.904 326.91 57.6907 327.081 57.52C327.252 57.3493 327.465 57.264 327.721 57.264H333.033V30.32H327.721C327.465 30.32 327.252 30.2347 327.081 30.064C326.91 29.8933 326.825 29.68 326.825 29.424V26.672C326.825 26.416 326.91 26.2027 327.081 26.032C327.252 25.8613 327.465 25.776 327.721 25.776H335.721C336.361 25.776 336.894 26.0107 337.321 26.48C337.79 26.9067 338.025 27.44 338.025 28.08V31.28L341.737 28.4C343.273 27.2053 344.51 26.416 345.449 26.032C346.43 25.6053 347.454 25.392 348.521 25.392H350.441C350.74 25.392 350.953 25.4773 351.081 25.648C351.252 25.8187 351.337 26.032 351.337 26.288V29.424C351.337 29.68 351.252 29.8933 351.081 30.064C350.91 30.2347 350.697 30.32 350.441 30.32H349.033C347.966 30.32 346.964 30.5547 346.025 31.024C345.086 31.4507 343.678 32.4107 341.801 33.904L338.025 36.912V57.264H345.449C345.705 57.264 345.918 57.3493 346.089 57.52C346.26 57.6907 346.345 57.904 346.345 58.16V61.104C346.345 61.36 346.26 61.5733 346.089 61.744C345.918 61.9147 345.705 62 345.449 62H327.721ZM364.778 62.832C361.492 62.832 358.804 61.9147 356.714 60.08C354.623 58.2027 353.578 55.7493 353.578 52.72C353.578 49.904 354.516 47.5787 356.394 45.744C358.314 43.9093 360.98 42.7573 364.394 42.288L372.714 41.136C373.951 40.9653 374.847 40.56 375.402 39.92C375.956 39.2373 376.234 38.2773 376.234 37.04V36.528C376.234 34.48 375.423 32.8373 373.802 31.6C372.223 30.32 370.239 29.68 367.85 29.68C365.972 29.68 364.33 30.064 362.922 30.832C361.556 31.5573 360.468 32.5813 359.658 33.904C359.316 34.4587 358.89 34.736 358.378 34.736C358.122 34.736 357.844 34.6293 357.546 34.416L355.818 33.264C355.434 32.9227 355.242 32.56 355.242 32.176C355.242 32.0053 355.306 31.792 355.434 31.536C356.671 29.488 358.356 27.888 360.49 26.736C362.666 25.5413 365.162 24.944 367.978 24.944C370.538 24.944 372.82 25.4347 374.826 26.416C376.831 27.3547 378.367 28.6987 379.434 30.448C380.543 32.1973 381.098 34.224 381.098 36.528V61.104C381.098 61.36 381.012 61.5733 380.842 61.744C380.671 61.9147 380.458 62 380.202 62H377.514C377.258 62 377.044 61.9147 376.874 61.744C376.703 61.5733 376.618 61.36 376.618 61.104V56.688C375.295 58.608 373.588 60.1227 371.498 61.232C369.45 62.2987 367.21 62.832 364.778 62.832ZM365.29 58.352C367.38 58.352 369.279 57.7973 370.986 56.688C372.692 55.5787 374.015 54.192 374.954 52.528C375.935 50.8213 376.426 49.1573 376.426 47.536V44.912C375.402 45.04 372.116 45.488 366.57 46.256L364.778 46.512C360.511 47.152 358.378 49.1573 358.378 52.528C358.378 54.2773 359.018 55.6853 360.298 56.752C361.578 57.8187 363.242 58.352 365.29 58.352ZM402.303 62.832C399.786 62.832 397.46 62.2133 395.327 60.976C393.194 59.7387 391.508 58.0533 390.271 55.92C389.034 53.744 388.415 51.3973 388.415 48.88V38.896C388.415 36.3787 389.034 34.0533 390.271 31.92C391.508 29.744 393.194 28.0373 395.327 26.8C397.46 25.5627 399.786 24.944 402.303 24.944C404.138 24.944 405.866 25.2853 407.487 25.968C409.151 26.6507 410.602 27.5893 411.839 28.784C412.095 29.04 412.223 29.3387 412.223 29.68C412.223 29.9787 412.095 30.2987 411.839 30.64C411.412 31.1093 410.922 31.6 410.367 32.112C410.068 32.368 409.748 32.496 409.407 32.496C409.023 32.496 408.682 32.3467 408.383 32.048C406.676 30.4693 404.65 29.68 402.303 29.68C400.682 29.68 399.188 30.0853 397.823 30.896C396.458 31.664 395.37 32.7307 394.559 34.096C393.791 35.4613 393.407 36.9547 393.407 38.576V49.2C393.407 50.8213 393.791 52.3147 394.559 53.68C395.37 55.0453 396.458 56.1333 397.823 56.944C399.188 57.712 400.682 58.096 402.303 58.096C404.65 58.096 406.676 57.3067 408.383 55.728C408.682 55.4293 409.023 55.28 409.407 55.28C409.748 55.28 410.068 55.408 410.367 55.664C410.879 56.0907 411.37 56.5813 411.839 57.136C412.095 57.392 412.223 57.712 412.223 58.096C412.223 58.4373 412.095 58.736 411.839 58.992C410.602 60.1867 409.151 61.1253 407.487 61.808C405.866 62.4907 404.138 62.832 402.303 62.832ZM419.915 62C419.659 62 419.424 61.936 419.211 61.808C419.04 61.6373 418.955 61.424 418.955 61.168V14.32C418.955 14.064 419.04 13.8507 419.211 13.68C419.382 13.5093 419.595 13.424 419.851 13.424H423.051C423.307 13.424 423.52 13.5093 423.691 13.68C423.862 13.8507 423.947 14.064 423.947 14.32V39.856H426.571L439.179 26.352C439.52 25.968 439.883 25.776 440.267 25.776H444.427C444.683 25.776 444.875 25.8613 445.003 26.032C445.174 26.16 445.259 26.3307 445.259 26.544C445.259 26.8 445.174 27.0133 445.003 27.184L430.795 42.032L445.771 60.72C445.899 60.8907 445.963 61.0613 445.963 61.232C445.963 61.4453 445.899 61.6373 445.771 61.808C445.643 61.936 445.451 62 445.195 62H441.035C440.651 62 440.288 61.808 439.947 61.424L426.571 44.592H423.947V61.168C423.947 61.424 423.84 61.6373 423.627 61.808C423.456 61.936 423.243 62 422.987 62H419.915ZM461.808 62C459.291 62 456.965 61.3813 454.832 60.144C452.699 58.9067 451.013 57.2213 449.776 55.088C448.539 52.912 447.92 50.5653 447.92 48.048V38.896C447.92 36.3787 448.539 34.0533 449.776 31.92C451.013 29.744 452.699 28.0373 454.832 26.8C456.965 25.5627 459.291 24.944 461.808 24.944C464.325 24.944 466.651 25.5627 468.784 26.8C470.917 28.0373 472.603 29.744 473.84 31.92C475.077 34.0533 475.696 36.3787 475.696 38.896V43.248C475.696 43.888 475.461 44.4427 474.992 44.912C474.565 45.3387 474.032 45.552 473.392 45.552H452.912V48.368C452.912 49.9893 453.296 51.4827 454.064 52.848C454.875 54.2133 455.963 55.3013 457.328 56.112C458.693 56.88 460.187 57.264 461.808 57.264H471.088C471.344 57.264 471.557 57.3493 471.728 57.52C471.899 57.6907 471.984 57.904 471.984 58.16V61.104C471.984 61.36 471.899 61.5733 471.728 61.744C471.557 61.9147 471.344 62 471.088 62H461.808ZM470.704 40.944V38.576C470.704 36.9547 470.299 35.4613 469.488 34.096C468.72 32.7307 467.653 31.664 466.288 30.896C464.923 30.0853 463.429 29.68 461.808 29.68C460.187 29.68 458.693 30.0853 457.328 30.896C455.963 31.664 454.875 32.7307 454.064 34.096C453.296 35.4613 452.912 36.9547 452.912 38.576V40.944H470.704ZM480.609 62C480.353 62 480.139 61.9147 479.969 61.744C479.798 61.5733 479.713 61.36 479.713 61.104V58.16C479.713 57.904 479.798 57.6907 479.969 57.52C480.139 57.3493 480.353 57.264 480.609 57.264H485.921V30.32H480.609C480.353 30.32 480.139 30.2347 479.969 30.064C479.798 29.8933 479.713 29.68 479.713 29.424V26.672C479.713 26.416 479.798 26.2027 479.969 26.032C480.139 25.8613 480.353 25.776 480.609 25.776H488.609C489.249 25.776 489.782 26.0107 490.209 26.48C490.678 26.9067 490.913 27.44 490.913 28.08V31.28L494.625 28.4C496.161 27.2053 497.398 26.416 498.337 26.032C499.318 25.6053 500.342 25.392 501.409 25.392H503.329C503.627 25.392 503.841 25.4773 503.969 25.648C504.139 25.8187 504.225 26.032 504.225 26.288V29.424C504.225 29.68 504.139 29.8933 503.969 30.064C503.798 30.2347 503.585 30.32 503.329 30.32H501.921C500.854 30.32 499.851 30.5547 498.913 31.024C497.974 31.4507 496.566 32.4107 494.689 33.904L490.913 36.912V57.264H498.337C498.593 57.264 498.806 57.3493 498.977 57.52C499.147 57.6907 499.233 57.904 499.233 58.16V61.104C499.233 61.36 499.147 61.5733 498.977 61.744C498.806 61.9147 498.593 62 498.337 62H480.609Z" fill="#101214"/>
<path d="M31.875 20.5625H19.125L14.4035 13.4803C13.6963 12.4145 14.4533 11 15.7283 11H35.2717C36.5467 11 37.3037 12.4145 36.5965 13.4803L31.875 20.5625ZM19.125 23.75H31.875C32.2535 23.999 32.6818 24.2779 33.1699 24.5867C38.8178 28.2025 51 35.992 51 52.4375C51 57.7168 46.7168 62 41.4375 62H9.5625C4.2832 62 0 57.7168 0 52.4375C0 35.992 12.1822 28.2025 17.8301 24.5867C18.3082 24.2779 18.7465 23.999 19.125 23.75ZM27.4922 32.5156C27.4922 31.4199 26.5957 30.5234 25.5 30.5234C24.4043 30.5234 23.5078 31.4199 23.5078 32.5156V33.9102C22.7508 34.0795 21.9937 34.3484 21.2965 34.7568C19.9119 35.5836 18.7166 37.0279 18.7266 39.1297C18.7365 41.1518 19.9219 42.4268 21.1869 43.1838C22.2826 43.8412 23.6473 44.2596 24.733 44.5783L24.9023 44.6281C26.1574 45.0066 27.0738 45.3055 27.6914 45.6939C28.1994 46.0127 28.2691 46.2318 28.2791 46.5107C28.2891 47.0088 28.0998 47.3076 27.6914 47.5566C27.1934 47.8654 26.4064 48.0547 25.5598 48.0248C24.4541 47.985 23.4182 47.6363 22.0635 47.1781C21.8344 47.0984 21.5953 47.0187 21.3463 46.9391C20.3004 46.5904 19.1748 47.1582 18.8262 48.1941C18.4775 49.2301 19.0453 50.3656 20.0813 50.7143C20.2705 50.774 20.4797 50.8437 20.6889 50.9234C21.5156 51.2123 22.4719 51.541 23.4979 51.7602V53.2344C23.4979 54.3301 24.3943 55.2266 25.49 55.2266C26.5857 55.2266 27.4822 54.3301 27.4822 53.2344V51.8598C28.2791 51.6904 29.076 51.4115 29.7932 50.9633C31.2176 50.0768 32.2934 48.5627 32.2635 46.4809C32.2336 44.4588 31.098 43.1539 29.8131 42.3371C28.6676 41.6199 27.2332 41.1816 26.1176 40.843L26.0479 40.823C24.7729 40.4346 23.8664 40.1557 23.2289 39.7771C22.7109 39.4684 22.701 39.2891 22.701 39.1098C22.701 38.7412 22.8404 38.4623 23.3186 38.1834C23.8564 37.8646 24.6732 37.6754 25.4602 37.6854C26.4164 37.6953 27.4723 37.9045 28.568 38.2033C29.6338 38.4822 30.7195 37.8547 31.0084 36.7889C31.2973 35.723 30.6598 34.6373 29.5939 34.3484C28.9465 34.1791 28.2293 34.0098 27.4922 33.8803V32.5156Z" fill="#1F845A"/>
</svg>
