<svg width="537" height="91" viewBox="0 0 537 91" fill="none" xmlns="http://www.w3.org/2000/svg">
<path d="M100.88 66C98.1067 66 95.5467 65.3173 93.2 63.952C90.896 62.5867 89.0613 60.7307 87.696 58.384C86.3307 56.0373 85.648 53.4773 85.648 50.704V43.792C85.648 41.0187 86.3307 38.4587 87.696 36.112C89.0613 33.7653 90.896 31.9093 93.2 30.544C95.5467 29.1787 98.1067 28.496 100.88 28.496C103.653 28.496 106.192 29.1787 108.496 30.544C110.843 31.9093 112.699 33.7653 114.064 36.112C115.429 38.4587 116.112 41.0187 116.112 43.792V48.08C116.112 48.848 115.835 49.5093 115.28 50.064C114.768 50.576 114.128 50.832 113.36 50.832H93.328V51.152C93.328 53.2427 94.0533 55.0347 95.504 56.528C96.9973 57.9787 98.7893 58.704 100.88 58.704H111.056C111.44 58.704 111.76 58.832 112.016 59.088C112.272 59.344 112.4 59.664 112.4 60.048V64.656C112.4 65.04 112.272 65.36 112.016 65.616C111.76 65.872 111.44 66 111.056 66H100.88ZM108.432 43.92V43.344C108.432 41.2533 107.685 39.4827 106.192 38.032C104.741 36.5387 102.971 35.792 100.88 35.792C98.7893 35.792 96.9973 36.5387 95.504 38.032C94.0533 39.4827 93.328 41.2533 93.328 43.344V43.92H108.432ZM119.403 66C118.977 66 118.614 65.872 118.315 65.616C118.017 65.3173 117.867 64.976 117.867 64.592C117.867 64.336 117.974 64.0373 118.187 63.696L129.451 46.608L119.659 31.632C119.446 31.2907 119.339 30.992 119.339 30.736C119.339 30.352 119.489 30.032 119.787 29.776C120.086 29.4773 120.449 29.328 120.875 29.328H126.059C126.657 29.328 127.19 29.6267 127.659 30.224L133.995 39.952L140.267 30.224C140.694 29.6267 141.227 29.328 141.868 29.328H147.052C147.478 29.328 147.841 29.4773 148.139 29.776C148.438 30.032 148.588 30.352 148.588 30.736C148.588 30.992 148.481 31.2907 148.268 31.632L138.476 46.608L149.74 63.696C149.953 64.0373 150.06 64.336 150.06 64.592C150.06 64.976 149.91 65.3173 149.611 65.616C149.313 65.872 148.95 66 148.523 66H143.212C142.571 66 142.038 65.7013 141.611 65.104L133.995 53.264L126.315 65.104C125.889 65.7013 125.355 66 124.715 66H119.403ZM156.153 78.352C155.769 78.352 155.449 78.224 155.193 77.968C154.937 77.712 154.809 77.392 154.809 77.008V30.672C154.809 30.288 154.937 29.968 155.193 29.712C155.449 29.456 155.769 29.328 156.153 29.328H160.313C160.697 29.328 161.017 29.456 161.273 29.712C161.529 29.968 161.657 30.288 161.657 30.672V33.552C162.767 31.888 164.132 30.6293 165.753 29.776C167.417 28.9227 169.188 28.496 171.065 28.496C173.583 28.496 175.929 29.1787 178.105 30.544C180.324 31.8667 182.073 33.6587 183.354 35.92C184.676 38.1813 185.337 40.6133 185.337 43.216V52.112C185.337 54.7147 184.697 57.1467 183.417 59.408C182.137 61.6693 180.409 63.4827 178.233 64.848C176.057 66.1707 173.668 66.832 171.065 66.832C169.487 66.832 167.951 66.512 166.457 65.872C165.007 65.1893 163.684 64.2293 162.489 62.992V77.008C162.489 77.392 162.361 77.712 162.105 77.968C161.849 78.224 161.529 78.352 161.145 78.352H156.153ZM170.105 59.472C172.196 59.472 173.967 58.7467 175.417 57.296C176.911 55.8027 177.657 54.0107 177.657 51.92V43.408C177.657 41.3173 176.911 39.5467 175.417 38.096C173.967 36.6027 172.196 35.856 170.105 35.856C168.015 35.856 166.223 36.6027 164.729 38.096C163.236 39.5467 162.489 41.3173 162.489 43.408V51.92C162.489 54.0107 163.236 55.8027 164.729 57.296C166.223 58.7467 168.015 59.472 170.105 59.472ZM205.763 66C202.989 66 200.429 65.3173 198.083 63.952C195.779 62.5867 193.944 60.7307 192.578 58.384C191.213 56.0373 190.53 53.4773 190.53 50.704V43.792C190.53 41.0187 191.213 38.4587 192.578 36.112C193.944 33.7653 195.779 31.9093 198.083 30.544C200.429 29.1787 202.989 28.496 205.763 28.496C208.536 28.496 211.075 29.1787 213.379 30.544C215.725 31.9093 217.581 33.7653 218.947 36.112C220.312 38.4587 220.995 41.0187 220.995 43.792V48.08C220.995 48.848 220.717 49.5093 220.163 50.064C219.651 50.576 219.011 50.832 218.243 50.832H198.21V51.152C198.21 53.2427 198.936 55.0347 200.387 56.528C201.88 57.9787 203.672 58.704 205.763 58.704H215.939C216.323 58.704 216.643 58.832 216.899 59.088C217.155 59.344 217.283 59.664 217.283 60.048V64.656C217.283 65.04 217.155 65.36 216.899 65.616C216.643 65.872 216.323 66 215.939 66H205.763ZM213.315 43.92V43.344C213.315 41.2533 212.568 39.4827 211.075 38.032C209.624 36.5387 207.853 35.792 205.763 35.792C203.672 35.792 201.88 36.5387 200.387 38.032C198.936 39.4827 198.21 41.2533 198.21 43.344V43.92H213.315ZM228.096 66C227.712 66 227.392 65.872 227.136 65.616C226.88 65.36 226.752 65.04 226.752 64.656V30.672C226.752 30.288 226.88 29.968 227.136 29.712C227.392 29.456 227.712 29.328 228.096 29.328H233.088C233.472 29.328 233.792 29.456 234.048 29.712C234.304 29.968 234.432 30.288 234.432 30.672V33.68C235.627 32.0587 237.035 30.8 238.656 29.904C240.32 28.9653 242.133 28.496 244.096 28.496C246.528 28.496 248.704 29.072 250.624 30.224C252.587 31.376 254.123 32.976 255.232 35.024C256.341 37.072 256.896 39.376 256.896 41.936V64.656C256.896 65.04 256.768 65.36 256.512 65.616C256.256 65.872 255.936 66 255.552 66H250.56C250.176 66 249.856 65.872 249.6 65.616C249.344 65.36 249.216 65.04 249.216 64.656V42.896C249.216 40.6347 248.64 38.9067 247.488 37.712C246.336 36.4747 244.715 35.856 242.624 35.856C240.107 35.856 238.101 36.688 236.608 38.352C235.157 39.9733 234.432 42.2133 234.432 45.072V64.656C234.432 65.04 234.304 65.36 234.048 65.616C233.792 65.872 233.472 66 233.088 66H228.096ZM274.572 66.832C272.268 66.832 270.049 66.4693 267.916 65.744C265.783 65.0187 263.884 64.016 262.22 62.736C262.007 62.5653 261.857 62.352 261.772 62.096C261.729 61.7973 261.751 61.52 261.836 61.264C262.135 60.5813 262.86 59.2373 264.012 57.232C264.353 56.72 264.78 56.464 265.292 56.464C265.591 56.464 265.889 56.5493 266.188 56.72C267.724 57.7867 269.153 58.576 270.476 59.088C271.841 59.5573 273.271 59.792 274.764 59.792C276.556 59.792 277.921 59.472 278.86 58.832C279.799 58.1493 280.268 57.232 280.268 56.08C280.268 55.0987 279.863 54.3307 279.052 53.776C278.241 53.2213 276.705 52.5173 274.444 51.664L272.14 50.768C270.263 50.0427 268.663 49.2747 267.34 48.464C266.017 47.6107 264.887 46.4587 263.948 45.008C263.052 43.5573 262.604 41.744 262.604 39.568C262.604 36.1973 263.713 33.5307 265.932 31.568C268.193 29.5627 271.18 28.56 274.892 28.56C277.068 28.56 279.201 28.9227 281.292 29.648C283.383 30.3307 285.217 31.2907 286.796 32.528C287.009 32.6987 287.137 32.9333 287.18 33.232C287.265 33.488 287.265 33.744 287.18 34C286.796 34.896 286.156 36.24 285.26 38.032C285.004 38.5013 284.599 38.736 284.044 38.736C283.745 38.736 283.447 38.6507 283.148 38.48C280.204 36.56 277.473 35.6 274.956 35.6C273.505 35.6 272.353 35.92 271.5 36.56C270.689 37.1573 270.284 38.0107 270.284 39.12C270.284 40.2293 270.753 41.168 271.692 41.936C272.631 42.6613 274.359 43.5147 276.876 44.496C279.308 45.4347 281.185 46.2453 282.508 46.928C283.873 47.568 285.111 48.6133 286.22 50.064C287.372 51.472 287.948 53.3067 287.948 55.568C287.948 57.7867 287.372 59.7493 286.22 61.456C285.111 63.1627 283.532 64.4853 281.484 65.424C279.479 66.3627 277.175 66.832 274.572 66.832ZM307.333 66C304.559 66 301.999 65.3173 299.653 63.952C297.348 62.5867 295.514 60.7307 294.148 58.384C292.783 56.0373 292.1 53.4773 292.1 50.704V43.792C292.1 41.0187 292.783 38.4587 294.148 36.112C295.514 33.7653 297.348 31.9093 299.653 30.544C301.999 29.1787 304.559 28.496 307.333 28.496C310.106 28.496 312.645 29.1787 314.949 30.544C317.295 31.9093 319.151 33.7653 320.517 36.112C321.882 38.4587 322.565 41.0187 322.565 43.792V48.08C322.565 48.848 322.287 49.5093 321.733 50.064C321.221 50.576 320.581 50.832 319.812 50.832H299.78V51.152C299.78 53.2427 300.506 55.0347 301.957 56.528C303.45 57.9787 305.242 58.704 307.333 58.704H317.509C317.893 58.704 318.213 58.832 318.469 59.088C318.725 59.344 318.853 59.664 318.853 60.048V64.656C318.853 65.04 318.725 65.36 318.469 65.616C318.213 65.872 317.893 66 317.509 66H307.333ZM314.885 43.92V43.344C314.885 41.2533 314.138 39.4827 312.645 38.032C311.194 36.5387 309.423 35.792 307.333 35.792C305.242 35.792 303.45 36.5387 301.957 38.032C300.506 39.4827 299.78 41.2533 299.78 43.344V43.92H314.885Z" fill="#1F845A"/>
<path d="M345.346 66C342.274 66 339.863 65.0827 338.114 63.248C336.365 61.3707 335.49 59.024 335.49 56.208V34.448H331.266C331.01 34.448 330.797 34.3627 330.626 34.192C330.455 34.0213 330.37 33.808 330.37 33.552V30.672C330.37 30.416 330.455 30.2027 330.626 30.032C330.797 29.8613 331.01 29.776 331.266 29.776H335.49V23.056C335.49 22.8 335.575 22.5867 335.746 22.416C335.917 22.2453 336.13 22.16 336.386 22.16H339.586C339.842 22.16 340.055 22.2453 340.226 22.416C340.397 22.5867 340.482 22.8 340.482 23.056V29.776H351.746C352.002 29.776 352.215 29.8613 352.386 30.032C352.557 30.2027 352.642 30.416 352.642 30.672V33.616C352.642 33.872 352.557 34.0853 352.386 34.256C352.215 34.4267 352.002 34.512 351.746 34.512H340.482V55.632C340.482 57.296 340.973 58.64 341.954 59.664C342.978 60.6453 344.301 61.1573 345.922 61.2L351.746 61.264C352.002 61.264 352.215 61.3493 352.386 61.52C352.557 61.6907 352.642 61.904 352.642 62.16V65.104C352.642 65.36 352.557 65.5733 352.386 65.744C352.215 65.9147 352.002 66 351.746 66H345.346ZM357.721 66C357.465 66 357.252 65.9147 357.081 65.744C356.91 65.5733 356.825 65.36 356.825 65.104V62.16C356.825 61.904 356.91 61.6907 357.081 61.52C357.252 61.3493 357.465 61.264 357.721 61.264H363.033V34.32H357.721C357.465 34.32 357.252 34.2347 357.081 34.064C356.91 33.8933 356.825 33.68 356.825 33.424V30.672C356.825 30.416 356.91 30.2027 357.081 30.032C357.252 29.8613 357.465 29.776 357.721 29.776H365.721C366.361 29.776 366.894 30.0107 367.321 30.48C367.79 30.9067 368.025 31.44 368.025 32.08V35.28L371.737 32.4C373.273 31.2053 374.51 30.416 375.449 30.032C376.43 29.6053 377.454 29.392 378.521 29.392H380.441C380.74 29.392 380.953 29.4773 381.081 29.648C381.252 29.8187 381.337 30.032 381.337 30.288V33.424C381.337 33.68 381.252 33.8933 381.081 34.064C380.91 34.2347 380.697 34.32 380.441 34.32H379.033C377.966 34.32 376.964 34.5547 376.025 35.024C375.086 35.4507 373.678 36.4107 371.801 37.904L368.025 40.912V61.264H375.449C375.705 61.264 375.918 61.3493 376.089 61.52C376.26 61.6907 376.345 61.904 376.345 62.16V65.104C376.345 65.36 376.26 65.5733 376.089 65.744C375.918 65.9147 375.705 66 375.449 66H357.721ZM394.778 66.832C391.492 66.832 388.804 65.9147 386.714 64.08C384.623 62.2027 383.578 59.7493 383.578 56.72C383.578 53.904 384.516 51.5787 386.394 49.744C388.314 47.9093 390.98 46.7573 394.394 46.288L402.714 45.136C403.951 44.9653 404.847 44.56 405.402 43.92C405.956 43.2373 406.234 42.2773 406.234 41.04V40.528C406.234 38.48 405.423 36.8373 403.802 35.6C402.223 34.32 400.239 33.68 397.85 33.68C395.972 33.68 394.33 34.064 392.922 34.832C391.556 35.5573 390.468 36.5813 389.658 37.904C389.316 38.4587 388.89 38.736 388.378 38.736C388.122 38.736 387.844 38.6293 387.546 38.416L385.818 37.264C385.434 36.9227 385.242 36.56 385.242 36.176C385.242 36.0053 385.306 35.792 385.434 35.536C386.671 33.488 388.356 31.888 390.49 30.736C392.666 29.5413 395.162 28.944 397.978 28.944C400.538 28.944 402.82 29.4347 404.826 30.416C406.831 31.3547 408.367 32.6987 409.434 34.448C410.543 36.1973 411.098 38.224 411.098 40.528V65.104C411.098 65.36 411.012 65.5733 410.842 65.744C410.671 65.9147 410.458 66 410.202 66H407.514C407.258 66 407.044 65.9147 406.874 65.744C406.703 65.5733 406.618 65.36 406.618 65.104V60.688C405.295 62.608 403.588 64.1227 401.498 65.232C399.45 66.2987 397.21 66.832 394.778 66.832ZM395.29 62.352C397.38 62.352 399.279 61.7973 400.986 60.688C402.692 59.5787 404.015 58.192 404.954 56.528C405.935 54.8213 406.426 53.1573 406.426 51.536V48.912C405.402 49.04 402.116 49.488 396.57 50.256L394.778 50.512C390.511 51.152 388.378 53.1573 388.378 56.528C388.378 58.2773 389.018 59.6853 390.298 60.752C391.578 61.8187 393.242 62.352 395.29 62.352ZM432.303 66.832C429.786 66.832 427.46 66.2133 425.327 64.976C423.194 63.7387 421.508 62.0533 420.271 59.92C419.034 57.744 418.415 55.3973 418.415 52.88V42.896C418.415 40.3787 419.034 38.0533 420.271 35.92C421.508 33.744 423.194 32.0373 425.327 30.8C427.46 29.5627 429.786 28.944 432.303 28.944C434.138 28.944 435.866 29.2853 437.487 29.968C439.151 30.6507 440.602 31.5893 441.839 32.784C442.095 33.04 442.223 33.3387 442.223 33.68C442.223 33.9787 442.095 34.2987 441.839 34.64C441.412 35.1093 440.922 35.6 440.367 36.112C440.068 36.368 439.748 36.496 439.407 36.496C439.023 36.496 438.682 36.3467 438.383 36.048C436.676 34.4693 434.65 33.68 432.303 33.68C430.682 33.68 429.188 34.0853 427.823 34.896C426.458 35.664 425.37 36.7307 424.559 38.096C423.791 39.4613 423.407 40.9547 423.407 42.576V53.2C423.407 54.8213 423.791 56.3147 424.559 57.68C425.37 59.0453 426.458 60.1333 427.823 60.944C429.188 61.712 430.682 62.096 432.303 62.096C434.65 62.096 436.676 61.3067 438.383 59.728C438.682 59.4293 439.023 59.28 439.407 59.28C439.748 59.28 440.068 59.408 440.367 59.664C440.879 60.0907 441.37 60.5813 441.839 61.136C442.095 61.392 442.223 61.712 442.223 62.096C442.223 62.4373 442.095 62.736 441.839 62.992C440.602 64.1867 439.151 65.1253 437.487 65.808C435.866 66.4907 434.138 66.832 432.303 66.832ZM449.915 66C449.659 66 449.424 65.936 449.211 65.808C449.04 65.6373 448.955 65.424 448.955 65.168V18.32C448.955 18.064 449.04 17.8507 449.211 17.68C449.382 17.5093 449.595 17.424 449.851 17.424H453.051C453.307 17.424 453.52 17.5093 453.691 17.68C453.862 17.8507 453.947 18.064 453.947 18.32V43.856H456.571L469.179 30.352C469.52 29.968 469.883 29.776 470.267 29.776H474.427C474.683 29.776 474.875 29.8613 475.003 30.032C475.174 30.16 475.259 30.3307 475.259 30.544C475.259 30.8 475.174 31.0133 475.003 31.184L460.795 46.032L475.771 64.72C475.899 64.8907 475.963 65.0613 475.963 65.232C475.963 65.4453 475.899 65.6373 475.771 65.808C475.643 65.936 475.451 66 475.195 66H471.035C470.651 66 470.288 65.808 469.947 65.424L456.571 48.592H453.947V65.168C453.947 65.424 453.84 65.6373 453.627 65.808C453.456 65.936 453.243 66 452.987 66H449.915ZM491.808 66C489.291 66 486.965 65.3813 484.832 64.144C482.699 62.9067 481.013 61.2213 479.776 59.088C478.539 56.912 477.92 54.5653 477.92 52.048V42.896C477.92 40.3787 478.539 38.0533 479.776 35.92C481.013 33.744 482.699 32.0373 484.832 30.8C486.965 29.5627 489.291 28.944 491.808 28.944C494.325 28.944 496.651 29.5627 498.784 30.8C500.917 32.0373 502.603 33.744 503.84 35.92C505.077 38.0533 505.696 40.3787 505.696 42.896V47.248C505.696 47.888 505.461 48.4427 504.992 48.912C504.565 49.3387 504.032 49.552 503.392 49.552H482.912V52.368C482.912 53.9893 483.296 55.4827 484.064 56.848C484.875 58.2133 485.963 59.3013 487.328 60.112C488.693 60.88 490.187 61.264 491.808 61.264H501.088C501.344 61.264 501.557 61.3493 501.728 61.52C501.899 61.6907 501.984 61.904 501.984 62.16V65.104C501.984 65.36 501.899 65.5733 501.728 65.744C501.557 65.9147 501.344 66 501.088 66H491.808ZM500.704 44.944V42.576C500.704 40.9547 500.299 39.4613 499.488 38.096C498.72 36.7307 497.653 35.664 496.288 34.896C494.923 34.0853 493.429 33.68 491.808 33.68C490.187 33.68 488.693 34.0853 487.328 34.896C485.963 35.664 484.875 36.7307 484.064 38.096C483.296 39.4613 482.912 40.9547 482.912 42.576V44.944H500.704ZM510.609 66C510.353 66 510.139 65.9147 509.969 65.744C509.798 65.5733 509.713 65.36 509.713 65.104V62.16C509.713 61.904 509.798 61.6907 509.969 61.52C510.139 61.3493 510.353 61.264 510.609 61.264H515.921V34.32H510.609C510.353 34.32 510.139 34.2347 509.969 34.064C509.798 33.8933 509.713 33.68 509.713 33.424V30.672C509.713 30.416 509.798 30.2027 509.969 30.032C510.139 29.8613 510.353 29.776 510.609 29.776H518.609C519.249 29.776 519.782 30.0107 520.209 30.48C520.678 30.9067 520.913 31.44 520.913 32.08V35.28L524.625 32.4C526.161 31.2053 527.398 30.416 528.337 30.032C529.318 29.6053 530.342 29.392 531.409 29.392H533.329C533.627 29.392 533.841 29.4773 533.969 29.648C534.139 29.8187 534.225 30.032 534.225 30.288V33.424C534.225 33.68 534.139 33.8933 533.969 34.064C533.798 34.2347 533.585 34.32 533.329 34.32H531.921C530.854 34.32 529.851 34.5547 528.913 35.024C527.974 35.4507 526.566 36.4107 524.689 37.904L520.913 40.912V61.264H528.337C528.593 61.264 528.806 61.3493 528.977 61.52C529.147 61.6907 529.233 61.904 529.233 62.16V65.104C529.233 65.36 529.147 65.5733 528.977 65.744C528.806 65.9147 528.593 66 528.337 66H510.609Z" fill="#101214"/>
<path d="M38.5 15.5286V61.6431M27 50.8139L30.3695 53.3463C34.8583 56.7242 42.1378 56.7242 46.6305 53.3463C51.1232 49.9684 51.1232 44.4962 46.6305 41.1183C44.388 39.4275 41.444 38.5859 38.5 38.5859C35.7208 38.5859 32.9417 37.7404 30.8218 36.0534C26.5822 32.6755 26.5822 27.2033 30.8218 23.8254C35.0615 20.4475 41.9385 20.4475 46.1782 23.8254L47.769 25.0935M73 38.5859C73 43.1277 72.1076 47.6251 70.3738 51.8213C68.6401 56.0174 66.0988 59.8302 62.8952 63.0418C59.6916 66.2533 55.8883 68.8009 51.7026 70.539C47.5168 72.2771 43.0306 73.3519 38.5 73.3519C33.9694 73.3519 21.1792 88.6001 16.9935 86.862C12.8078 85.1238 17.3084 66.2533 14.1048 63.0418C10.9012 59.8302 8.35994 56.0174 6.62616 51.8213C4.89237 47.6251 4 43.1277 4 38.5859C4 29.4131 7.63481 20.6161 14.1048 14.13C20.5748 7.64386 29.35 4 38.5 4C47.65 4 56.4252 7.64386 62.8952 14.13C69.3652 20.6161 73 29.4131 73 38.5859Z" stroke="#1F845A" stroke-width="8" stroke-linecap="round" stroke-linejoin="round"/>
</svg>
